<?xml version="1.0" encoding="utf-8"?>
<!-- Generator: Adobe Illustrator 14.0.0, SVG Export Plug-In  -->
<!DOCTYPE svg PUBLIC "-//W3C//DTD SVG 1.1//EN" "http://www.w3.org/Graphics/SVG/1.1/DTD/svg11.dtd" [
	<!ENTITY ns_flows "http://ns.adobe.com/Flows/1.0/">
]>
<svg version="1.1"
	 xmlns="http://www.w3.org/2000/svg" xmlns:xlink="http://www.w3.org/1999/xlink" xmlns:a="http://ns.adobe.com/AdobeSVGViewerExtensions/3.0/"
	 x="0px" y="0px" width="36px" height="100px" viewBox="0 0 36 100" enable-background="new 0 0 36 100" xml:space="preserve">
<defs>
</defs>
<path fill="#2796F2" d="M33.395,19.694H2.783c0,0-2.51,0.979-2.783,2.783v42.446h4.893V46.636h3.854L8.653,100h6.605l0.826-24.525
	h4.006L20.918,100h6.604L27.43,46.636h3.854v18.288h4.893V22.478C35.901,20.673,33.395,19.694,33.395,19.694z"/>
<path fill="#2796F2" d="M18.089,16.178c-4.465,0-8.104-3.609-8.104-8.089C9.983,3.593,13.624,0,18.089,0
	c4.479,0,8.104,3.593,8.104,8.089C26.192,12.568,22.567,16.178,18.089,16.178z"/>
</svg>
