<?xml version="1.0" encoding="utf-8"?>
<!-- Generator: Adobe Illustrator 14.0.0, SVG Export Plug-In . SVG Version: 6.00 Build 43363)  -->
<!DOCTYPE svg PUBLIC "-//W3C//DTD SVG 1.0//EN" "http://www.w3.org/TR/2001/REC-SVG-20010904/DTD/svg10.dtd">
<svg version="1.0" id="Layer_1" xmlns="http://www.w3.org/2000/svg" xmlns:xlink="http://www.w3.org/1999/xlink" x="0px" y="0px"
	 width="100px" height="91.406px" viewBox="0 0 100 91.406" enable-background="new 0 0 100 91.406" xml:space="preserve">
<polygon points="52.094,8.162 47.5,10.691 49.756,12.947 54.184,10.29 "/>
<polygon points="56.669,12.813 52.553,15.745 54.892,18.083 58.854,15.037 "/>
<polygon points="60.817,17.025 57.345,20.536 59.53,22.722 63.021,19.268 "/>
<polygon points="64.984,21.269 61.983,25.175 64.322,27.514 67.177,23.499 "/>
<polygon points="69.681,26.042 67.119,30.311 69.464,32.656 71.904,28.304 "/>
<polygon points="44.396,12.405 39.483,15.114 41.981,17.611 46.741,14.75 "/>
<polygon points="49.736,17.745 45.282,20.912 47.844,23.474 52.164,20.173 "/>
<polygon points="54.942,22.951 51.15,26.781 53.285,28.916 57.115,25.124 "/>
<polygon points="59.894,27.902 56.593,32.223 59.154,34.784 62.321,30.33 "/>
<polygon points="65.315,33.325 62.455,38.085 64.997,40.627 67.737,35.746 "/>
<polygon points="36.374,16.821 32.538,18.937 35.253,21.651 38.974,19.421 "/>
<polygon points="42.473,22.919 38.993,25.392 41.746,28.145 45.116,25.564 "/>
<polygon points="48.755,29.202 45.792,32.191 47.876,34.274 50.864,31.312 "/>
<polygon points="54.502,34.95 51.922,38.321 54.675,41.073 57.147,37.594 "/>
<polygon points="60.646,41.092 58.415,44.814 61.13,47.528 63.271,43.718 "/>
<path d="M86.897,48.8L86.886,7.142c0.002-0.023,0.004-0.046,0.006-0.07l0.007-0.058V7.002c0.172-1.833-0.44-3.728-1.842-5.129
	c-2.497-2.497-6.552-2.497-9.049,0c-0.104,0.104-0.203,0.215-0.299,0.325l-0.013-0.013l-6.093,6.093
	c-0.792-0.788-1.755-1.752-2.828-2.843c-2.299-2.336-3.437-2.89-5.882-2.352c-2.445,0.539-5.385,3.192-5.385,3.192l8.456,8.456
	l1.363,1.363l8.463,8.462c0,0,2.653-2.939,3.192-5.385c0.538-2.445-0.021-3.589-2.357-5.888c-0.688-0.677-1.326-1.31-1.901-1.884
	l2.104-2.105l3.874-3.874l0.026,0.025c0.053-0.068,0.108-0.135,0.172-0.198c0.861-0.861,2.261-0.861,3.122,0
	c0.39,0.39,0.601,0.892,0.637,1.402v0.37V48.8H50H0c0,0,0.601,2.11,6.407,24.484c2.297,8.851,4.188,8.588,9.11,8.633h3.415
	l-0.012,0.027c0.004,0,0.008,0,0.012,0l-1.604,9.462h5.073l2.019-9.489h51.158l2.019,9.489h5.073l-1.604-9.462
	c0.004,0,0.009,0,0.013,0l-0.013-0.027h3.416c4.922-0.045,6.813,0.218,9.11-8.633C99.398,50.91,100,48.8,100,48.8H86.897z"/>
</svg>
