<?xml version="1.0" encoding="utf-8"?>
<!-- Generator: Adobe Illustrator 14.0.0, SVG Export Plug-In . SVG Version: 6.00 Build 43363)  -->
<!DOCTYPE svg PUBLIC "-//W3C//DTD SVG 1.1//EN" "http://www.w3.org/Graphics/SVG/1.1/DTD/svg11.dtd">
<svg version="1.1" id="Layer_1" xmlns="http://www.w3.org/2000/svg" xmlns:xlink="http://www.w3.org/1999/xlink" x="0px" y="0px"
	 width="25.997px" height="22.203px" viewBox="0 63.204 25.997 22.203" enable-background="new 0 63.204 25.997 22.203"
	 xml:space="preserve">
<path fill="#14A0EF" d="M25.179,74.646c0,1.073-0.42,2.047-1.104,2.772c-0.117,1.53-1.087,2.821-2.438,3.404v0.015
	c-1.65,0.96-2.637,2.602-2.938,4.569h-1.526v-4.565c0.01-1.423,0.458-2.335,1.396-2.896c0.343-0.197,0.656-0.424,0.921-0.673
	c0.696,0.249,1.313,0.74,1.705,1.438c0.082,0.137,0.228,0.214,0.372,0.214c0.07,0,0.144-0.017,0.208-0.056
	c0.209-0.115,0.283-0.375,0.167-0.581h-0.003c-0.438-0.78-1.107-1.357-1.864-1.701c0.389-0.598,0.604-1.31,0.595-2.164
	c0-0.005,0.006-0.009,0.006-0.015c0-0.387-0.057-0.762-0.16-1.116c0.891-0.17,1.676-0.622,2.254-1.259
	c0.16-0.176,0.148-0.446-0.028-0.603c-0.176-0.159-0.442-0.146-0.6,0.026c-0.503,0.548-1.183,0.923-1.956,1.025
	c-0.62-1.149-1.774-1.967-3.127-2.115c0.09-0.729,0.419-1.38,0.914-1.875c0.163-0.166,0.163-0.437,0-0.601
	c-0.166-0.168-0.44-0.168-0.606,0c-0.634,0.634-1.058,1.479-1.163,2.423c-1.589-0.2-2.813-1.549-2.816-3.191
	c0-0.233-0.193-0.427-0.422-0.427c-0.242,0-0.431,0.193-0.431,0.427c0,0.277,0.027,0.542,0.08,0.803
	c-0.603,0.521-1.352,0.783-2.103,0.783c-0.37,0-0.742-0.064-1.093-0.192c0,0-0.005-0.001-0.01-0.003
	c-0.432-0.156-0.828-0.404-1.171-0.747c-0.165-0.166-0.436-0.166-0.604,0s-0.167,0.436,0,0.603c0.352,0.351,0.748,0.622,1.17,0.817
	c-0.084,1.063-0.703,1.977-1.566,2.49c-0.5-0.757-1.25-1.357-2.173-1.652c-0.23-0.07-0.469,0.054-0.542,0.278
	c-0.063,0.225,0.052,0.464,0.279,0.533c0.686,0.218,1.236,0.64,1.632,1.178c-0.266,0.071-0.54,0.109-0.83,0.109c0,0,0,0-0.005,0
	H5.552c-1.096,0-2.102,0.437-2.834,1.15c-0.174,0.165-0.178,0.436-0.007,0.603c0.082,0.086,0.193,0.129,0.309,0.129
	c0.098,0,0.205-0.04,0.288-0.12c0.581-0.566,1.374-0.908,2.246-0.908h0.046h0.001h0.005c2.054,0,3.76-1.529,4.027-3.512
	c0.292,0.062,0.583,0.098,0.879,0.098c0.834,0,1.675-0.259,2.383-0.771c0.259,0.591,0.668,1.107,1.164,1.507
	c-0.506,0.625-0.804,1.365-0.882,2.123c-0.213-0.034-0.437-0.053-0.662-0.053c-0.644,0-1.298,0.152-1.905,0.478
	c-0.209,0.111-0.288,0.369-0.177,0.578c0.077,0.142,0.227,0.225,0.38,0.225c0.07,0,0.133-0.016,0.194-0.052
	c0.489-0.256,1.001-0.378,1.508-0.378c0.226,0,0.449,0.024,0.662,0.07c0.093,0.864,0.467,1.709,1.108,2.382
	c0.086,0.089,0.196,0.132,0.307,0.132c0.104,0,0.213-0.039,0.297-0.117c0.174-0.165,0.179-0.433,0.013-0.603h-0.003
	c-0.57-0.604-0.872-1.371-0.892-2.146c0-0.011,0.003-0.02,0-0.032c0-0.016,0-0.032,0-0.047c0-0.753,0.261-1.497,0.775-2.095
	c0.542,0.271,1.16,0.429,1.813,0.429c0,0,0.003,0.001,0.007,0.001c0,0,0.002,0,0.007,0c1.771,0.005,3.204,1.437,3.211,3.206
	c-0.336-0.089-0.682-0.134-1.037-0.134c-0.508,0-1.023,0.093-1.52,0.297c-0.22,0.091-0.324,0.338-0.236,0.556
	c0.09,0.217,0.335,0.323,0.554,0.234c0.397-0.158,0.803-0.235,1.202-0.235c0.322,0,0.641,0.048,0.939,0.141
	c-0.104,0.479-0.309,0.861-0.626,1.202c-0.024,0.021-0.048,0.045-0.065,0.073c-0.244,0.239-0.536,0.46-0.896,0.679
	c-1.234,0.721-1.827,2.028-1.814,3.63v4.565h-1.455v-4.342c0-1.594-1-3.106-2.259-3.644c-0.601-0.234-1.228-0.625-1.684-1.136
	c-0.65,0.443-1.432,0.703-2.271,0.703c-0.842,0-1.623-0.256-2.27-0.695c-0.644,0.424-1.42,0.671-2.251,0.671
	C1.847,76.964,0,75.113,0,72.832c0-1.705,1.031-3.168,2.507-3.797c0.399-1.821,2.011-3.182,3.95-3.182
	c0.103,0,0.198,0.008,0.293,0.014c0.731-1.068,1.959-1.77,3.352-1.77c0.689,0,1.335,0.173,1.903,0.478
	c0.641-0.425,1.408-0.673,2.232-0.673c1.06,0,2.025,0.413,2.749,1.085c0.303-0.073,0.616-0.116,0.944-0.116
	c1.638,0,3.053,0.985,3.686,2.396c1.662,0.504,2.872,2.046,2.872,3.87c0,0.367-0.049,0.72-0.139,1.057
	C24.868,72.875,25.179,73.724,25.179,74.646z"/>
</svg>
