<?xml version="1.0" encoding="utf-8"?>
<!-- Generator: Adobe Illustrator 14.0.0, SVG Export Plug-In . SVG Version: 6.00 Build 43363)  -->
<!DOCTYPE svg PUBLIC "-//W3C//DTD SVG 1.0//EN" "http://www.w3.org/TR/2001/REC-SVG-20010904/DTD/svg10.dtd">
<svg version="1.0" id="Layer_1" xmlns="http://www.w3.org/2000/svg" xmlns:xlink="http://www.w3.org/1999/xlink" x="0px" y="0px"
	 width="65.79px" height="100px" viewBox="0 0 65.79 100" enable-background="new 0 0 65.79 100" xml:space="preserve">
<path d="M26.083,79.406c-2.386-2.373-5.516-3.536-8.635-3.5l-0.012-0.005L5.513,75.874l0.026,11.924l0.005,0.012
	c-0.036,3.119,1.127,6.25,3.499,8.636c0.008,0.008,0.015,0.017,0.023,0.025c4.706,4.706,12.336,4.706,17.042,0
	c2.354-2.354,3.53-5.438,3.53-8.521s-1.177-6.168-3.53-8.521C26.101,79.42,26.092,79.413,26.083,79.406z"/>
<path d="M65.79,24.102c0-6.656-5.396-12.051-12.051-12.051C53.739,5.395,48.344,0,41.689,0c-3.475,0-6.596,1.478-8.794,3.83
	C30.695,1.478,27.575,0,24.102,0c-6.655,0-12.051,5.395-12.051,12.051C5.396,12.051,0,17.446,0,24.102
	c0,3.473,1.478,6.594,3.83,8.793C1.478,35.094,0,38.215,0,41.689c0,6.655,5.396,12.05,12.051,12.05
	c0,6.655,5.396,12.051,12.051,12.051c2.001,0,3.878-0.504,5.537-1.369v23.528V100h6.514V87.949V64.421
	c1.658,0.865,3.535,1.369,5.537,1.369c6.654,0,12.05-5.396,12.05-12.051c6.655,0,12.051-5.395,12.051-12.05
	c0-3.474-1.478-6.595-3.829-8.794C64.312,30.696,65.79,27.575,65.79,24.102z M32.896,53.739c-11.513,0-20.845-9.333-20.845-20.844
	s9.332-20.844,20.845-20.844c11.511,0,20.844,9.333,20.844,20.844S44.406,53.739,32.896,53.739z"/>
<path d="M56.724,96.471c0.009-0.009,0.015-0.018,0.023-0.025c2.372-2.386,3.534-5.517,3.5-8.636l0.004-0.012l0.026-11.924
	l-11.924,0.027l-0.011,0.005c-3.119-0.036-6.25,1.127-8.636,3.5c-0.009,0.007-0.018,0.014-0.025,0.021
	c-2.354,2.354-3.529,5.438-3.529,8.521s1.176,6.168,3.529,8.521C44.388,101.177,52.018,101.177,56.724,96.471z"/>
</svg>
